<svg xmlns:xlink="http://www.w3.org/1999/xlink" width="48" height="48" viewBox="0 0 48 48" fill="none" xmlns="http://www.w3.org/2000/svg"><path fill-rule="evenodd" clip-rule="evenodd" d="M5 18C4.44772 18 4 18.4477 4 19V21C4 21.5523 4.44772 22 5 22H5.90361L5.08072 34.7493C5.03701 35.4266 5.57457 36 6.25327 36H13.7467C14.4254 36 14.963 35.4266 14.9193 34.7493L14.0964 22H15C15.5523 22 16 21.5523 16 21V19C16 18.4477 15.5523 18 15 18H5Z" fill="#9EB3EE"></path><path fill-rule="evenodd" clip-rule="evenodd" d="M19 18C18.4477 18 18 18.4477 18 19V21C18 21.5523 18.4477 22 19 22H19.9036L19.0807 34.7493C19.037 35.4266 19.5746 36 20.2533 36H27.7467C28.4254 36 28.963 35.4266 28.9193 34.7493L28.0964 22H29C29.5523 22 30 21.5523 30 21V19C30 18.4477 29.5523 18 29 18H19Z" fill="#9EB3EE"></path><path fill-rule="evenodd" clip-rule="evenodd" d="M34 18C33.4477 18 33 18.4477 33 19V21C33 21.5523 33.4477 22 34 22H34.9036L34.0807 34.7493C34.037 35.4266 34.5746 36 35.2533 36H42.7467C43.4254 36 43.963 35.4266 43.9193 34.7493L43.0964 22H44C44.5523 22 45 21.5523 45 21V19C45 18.4477 44.5523 18 44 18H34Z" fill="#9EB3EE"></path><path d="M1.0202 38.8586C1.09058 38.3659 1.5125 38 2.01015 38H45.9898C46.4875 38 46.9094 38.3659 46.9798 38.8586L47.8369 44.8586C47.923 45.461 47.4555 46 46.847 46H1.15301C0.544463 46 0.0769983 45.461 0.16306 44.8586L1.0202 38.8586Z" fill="#1E4DD8"></path><path fill-rule="evenodd" clip-rule="evenodd" d="M0.715419 8.91582C0.291046 9.04179 0 9.43179 0 9.87447V15C0 15.5523 0.447714 16 0.999999 16H47C47.5523 16 48 15.5523 48 15V9.87425C48 9.43168 47.7091 9.04174 47.2849 8.91568L25.7206 2.5076C24.6059 2.17634 23.4189 2.17617 22.304 2.50712L0.715419 8.91582ZM24 13C25.6569 13 27 11.6568 27 9.99998C27 8.34313 25.6569 6.99998 24 6.99998C22.3431 6.99998 21 8.34313 21 9.99998C21 11.6568 22.3431 13 24 13Z" fill="#1E4DD8"></path></svg>