<svg xmlns:xlink="http://www.w3.org/1999/xlink" width="48" height="48" viewBox="0 0 48 48" fill="none" xmlns="http://www.w3.org/2000/svg"><path fill-rule="evenodd" clip-rule="evenodd" d="M5.13202 2.02051H37.9104C40.0091 2.02051 41.7104 3.72183 41.7104 5.82051V41.9244C41.7104 42.9737 40.8598 43.8244 39.8105 43.8244H10.1673C9.11798 43.8244 8.26732 42.9911 8.26732 41.9418V6.2009C8.26732 2.02051 5.13202 2.02051 5.13202 2.02051ZM36.1016 28.423C36.1016 27.8154 35.609 27.3229 35.0015 27.3229C34.3939 27.3229 33.9014 27.8154 33.9014 28.423V34.971C33.9005 34.9885 33.9001 35.006 33.9001 35.0236C33.9001 35.6312 34.3927 36.1237 35.0002 36.1237H39.4008C40.0084 36.1237 40.5009 35.6312 40.5009 35.0236C40.5009 34.416 40.0084 33.9235 39.4008 33.9235H36.1016V28.423ZM28.1533 11.4257C28.1533 10.8734 27.7056 10.4257 27.1533 10.4257H15.6572C15.105 10.4257 14.6572 10.8734 14.6572 11.4257C14.6572 11.978 15.105 12.4257 15.6572 12.4257H27.1533C27.7056 12.4257 28.1533 11.978 28.1533 11.4257ZM32.2594 17.6962C32.2594 17.144 31.8116 16.6962 31.2594 16.6962H15.6574C15.1051 16.6962 14.6574 17.144 14.6574 17.6962C14.6574 18.2485 15.1051 18.6962 15.6574 18.6962H31.2594C31.8116 18.6962 32.2594 18.2485 32.2594 17.6962Z" fill="#9EB3EE"></path><path d="M1.99845 9.43129C1.99845 9.95596 2.42378 10.3813 2.94845 10.3813H8.26904V5.1558C8.26904 3.33309 6.94778 2.02051 5.13375 2.02051C3.31972 2.02051 1.99845 3.33309 1.99845 5.1558V9.43129Z" fill="#1E4DD8"></path><path fill-rule="evenodd" clip-rule="evenodd" d="M34.4995 46C40.8508 46 45.9995 40.8513 45.9995 34.5C45.9995 28.1487 40.8508 23 34.4995 23C28.1482 23 22.9995 28.1487 22.9995 34.5C22.9995 40.8513 28.1482 46 34.4995 46Z" fill="#1E4DD8"></path><path fill-rule="evenodd" clip-rule="evenodd" d="M41.685 30.2718C42.0872 30.6503 42.1063 31.2832 41.7278 31.6854L34.6075 39.2507C34.1042 39.7854 33.2585 39.7982 32.7392 39.279L29.2924 35.8322C28.9019 35.4416 28.9019 34.8085 29.2924 34.4179C29.6829 34.0274 30.3161 34.0274 30.7066 34.4179L33.6445 37.3558L40.2714 30.3146C40.6499 29.9125 41.2828 29.8933 41.685 30.2718Z" fill="#FFFFFF"></path></svg>