<svg xmlns:xlink="http://www.w3.org/1999/xlink" width="48" height="48" viewBox="0 0 48 48" fill="none" xmlns="http://www.w3.org/2000/svg"><path fill-rule="evenodd" clip-rule="evenodd" d="M13.1571 15.189C14.988 10.0073 18.1842 5.48416 22.3074 2.06421C10.948 2.9285 2 12.4193 2 24.0001C2 35.5807 10.9478 45.0715 22.3071 45.9359C18.2256 42.5504 15.0524 38.0838 13.2128 32.9676H6.4V15.474H13.1009C13.1055 15.3791 13.1238 15.2832 13.1571 15.189ZM13.6123 16.3953V16.8743C13.7549 16.7489 13.9014 16.6313 14.0514 16.5212C13.9566 16.5165 13.8609 16.4982 13.7668 16.465C13.7126 16.4458 13.661 16.4224 13.6123 16.3953ZM15.0085 15.9402C16.0306 15.4362 17.1704 15.2092 18.3637 15.2092C19.0474 15.2092 19.7566 15.2783 20.4632 15.4609C21.0604 15.6132 21.6401 15.809 22.1548 16.0737C22.5614 16.2827 22.9443 16.5149 23.2867 16.7652C23.5604 16.9652 23.8948 17.2352 24.1703 17.5651L24.8301 18.2983C24.9756 18.1365 25.128 17.9782 25.2872 17.8232C27.0882 16.0703 29.3368 15.2001 31.8711 15.2001C32.161 15.2001 32.4472 15.2115 32.7294 15.2343C30.9245 10.4854 27.8806 6.36006 24 3.26541C19.9512 6.4942 16.8132 10.845 15.0429 15.8553C15.0326 15.8844 15.0211 15.9127 15.0085 15.9402ZM34.8909 15.6582C36.209 16.083 37.4077 16.8039 38.4549 17.8232C40.2423 19.5629 41.1749 21.7354 41.1749 24.2208C41.1749 26.703 40.2447 28.8855 38.4549 30.6276C37.3953 31.6589 36.1808 32.3847 34.8443 32.8074C34.8438 32.8088 34.8433 32.8101 34.8429 32.8114C33.012 37.9929 29.8159 42.516 25.6929 45.9359C37.0522 45.0715 46 35.5807 46 24.0001C46 12.4193 37.052 2.9285 25.6926 2.06421C29.8158 5.48416 33.012 10.0073 34.8429 15.189C34.8979 15.3448 34.9121 15.5051 34.8909 15.6582ZM32.5486 33.2295C32.3251 33.2436 32.0993 33.2507 31.8711 33.2507C29.3368 33.2507 27.0882 32.3805 25.2872 30.6276C25.0675 30.4137 24.8607 30.1932 24.667 29.9663C24.3384 30.5502 23.904 31.0836 23.3643 31.5559C21.9695 32.7763 20.1779 33.2507 18.2724 33.2507C17.4929 33.2507 16.7142 33.1563 15.9604 32.9618C15.7262 32.9013 15.4942 32.8332 15.2669 32.7565C17.0715 37.5094 20.1168 41.6382 24 44.7349C27.7538 41.7414 30.7247 37.7834 32.5486 33.2295ZM30.4586 22.7181C30.0683 23.1128 29.8709 23.5687 29.8709 24.2299C29.8709 24.8936 30.0695 25.3435 30.45 25.724L30.4587 25.7327L30.4672 25.7414C30.8572 26.1402 31.2816 26.3214 31.8711 26.3214C32.4605 26.3214 32.8849 26.1402 33.2749 25.7414L33.2835 25.7327L33.2921 25.724C33.6726 25.3435 33.8713 24.8936 33.8713 24.2299C33.8713 23.5687 33.6738 23.1128 33.2835 22.7181L33.2749 22.7094C32.8762 22.3018 32.448 22.1202 31.8711 22.1202C31.2941 22.1202 30.8659 22.3017 30.4672 22.7094L30.4586 22.7181Z" fill="#9EB3EE"></path><path d="M9 30.7097H11.7776V17.2809H9V30.7097Z" fill="#1E4DD8"></path><path d="M20.501 26.7766C20.501 27.2823 20.3116 27.6943 19.9328 28.0127C19.554 28.3405 19.04 28.4997 18.3727 28.4997C17.7955 28.4997 17.2364 28.3686 16.7133 28.097C16.1812 27.8348 15.8386 27.6194 15.6853 27.4602C15.5319 27.301 15.4147 27.1699 15.3335 27.0669L13.6652 28.79L13.8726 29.0241C13.9898 29.1739 14.1882 29.3612 14.4678 29.5766C14.7383 29.8013 15.063 30.0167 15.4237 30.2227C15.7845 30.4381 16.2534 30.6254 16.8125 30.7753C17.3716 30.9251 17.9578 31 18.553 31C20.0861 31 21.2855 30.6067 22.1513 29.8201C23.017 29.0334 23.4499 28.0221 23.4499 26.7766C23.4499 25.8963 23.2335 25.1753 22.7916 24.5946C22.3587 24.0234 21.8266 23.6114 21.1954 23.3585C20.5641 23.115 19.9418 22.8903 19.3196 22.703C18.6973 22.5157 18.1652 22.291 17.7324 22.0194C17.2995 21.7478 17.074 21.3826 17.074 20.9331C17.074 20.5398 17.2364 20.1933 17.561 19.9124C17.8857 19.6314 18.3095 19.491 18.8326 19.491C19.2745 19.491 19.6983 19.6033 20.1132 19.8094C20.528 20.0247 20.8076 20.1933 20.9338 20.3244C21.0601 20.4555 21.1593 20.5585 21.2314 20.6522L22.8908 18.8261L22.7284 18.6388C22.6292 18.5077 22.4579 18.3485 22.2234 18.1706C21.9889 17.9926 21.7094 17.8147 21.3938 17.6462C21.0781 17.4776 20.6723 17.3278 20.1763 17.1967C19.6893 17.0656 19.1753 17.0094 18.6432 17.0094C17.3085 17.0094 16.2173 17.3933 15.3786 18.1612C14.5399 18.9291 14.1161 19.8562 14.1161 20.9425C14.1161 21.8227 14.3415 22.5438 14.7744 23.1244C15.2163 23.6957 15.7484 24.1077 16.3706 24.3605C16.9929 24.604 17.6151 24.8194 18.2464 25.0067C18.8777 25.194 19.4098 25.4187 19.8426 25.6997C20.2755 25.9712 20.501 26.3271 20.501 26.7766Z" fill="#1E4DD8"></path><path d="M27.8355 24.0047C27.8355 22.7686 28.2323 21.7197 29.0439 20.8676C29.8466 20.0154 30.8295 19.5846 31.9839 19.5846C33.1382 19.5846 34.1212 20.0154 34.9238 20.8676C35.7354 21.7197 36.1322 22.7686 36.1322 24.0047C36.1322 25.2408 35.7354 26.2896 34.9238 27.1324C34.1212 27.9846 33.1382 28.406 31.9839 28.406C30.8295 28.406 29.8466 27.9846 29.0439 27.1324C28.2323 26.2896 27.8355 25.2408 27.8355 24.0047ZM24.9677 23.9953C24.9677 25.9244 25.6441 27.5819 26.9968 28.9492C28.3495 30.3164 30.0179 31 31.9839 31C33.9498 31 35.6182 30.3164 36.9709 28.9492C38.3236 27.5819 39 25.9244 39 23.9953C39 22.0662 38.3236 20.4181 36.9709 19.0508C35.6182 17.6836 33.9498 17 31.9839 17C30.0179 17 28.3495 17.6836 26.9968 19.0508C25.6441 20.4181 24.9677 22.0662 24.9677 23.9953Z" fill="#1E4DD8"></path></svg>