<svg xmlns:xlink="http://www.w3.org/1999/xlink" width="49" height="49" viewBox="0 0 49 49" fill="none" xmlns="http://www.w3.org/2000/svg"><path fill-rule="evenodd" clip-rule="evenodd" d="M5.99224 8.38568C4.56067 8.70917 3.5 9.96418 3.5 11.4318V20.9408C3.5 31.5425 9.1914 41.4586 18.7089 46.129C21.554 47.5251 23.8484 48.54 24.5058 48.54C25.1631 48.54 27.4551 47.5257 30.2974 46.1303C39.8116 41.4592 45.5 31.5449 45.5 20.9459V11.4318C45.5 9.96418 44.4393 8.70917 43.0078 8.38568C40.7903 7.88459 37.5178 7.00851 35 5.75743C33.5122 5.01813 32.0243 4.14788 30.6298 3.33223C28.0878 1.84541 25.8561 0.540039 24.5 0.540039C23.1439 0.540039 20.9122 1.84541 18.3702 3.33223C16.9757 4.14788 15.4878 5.01813 14 5.75743C11.4822 7.00851 8.20975 7.88459 5.99224 8.38568ZM31.4765 21.3967C31.9497 20.894 31.9257 20.1029 31.423 19.6298C30.9203 19.1566 30.1292 19.1806 29.656 19.6833L22.4949 27.292L19.3839 24.181C18.8957 23.6929 18.1043 23.6929 17.6161 24.181C17.128 24.6692 17.128 25.4606 17.6161 25.9488L21.4183 29.751C22.0373 30.37 23.0455 30.3547 23.6455 29.7173L31.4765 21.3967Z" fill="#9EB3EE"></path><path fill-rule="evenodd" clip-rule="evenodd" d="M24.5 37.54C31.6797 37.54 37.5 31.7197 37.5 24.54C37.5 17.3603 31.6797 11.54 24.5 11.54C17.3203 11.54 11.5 17.3603 11.5 24.54C11.5 31.7197 17.3203 37.54 24.5 37.54ZM31.4765 21.3967C31.9497 20.894 31.9257 20.1029 31.423 19.6298C30.9203 19.1566 30.1292 19.1806 29.656 19.6833L22.4949 27.292L19.3839 24.181C18.8957 23.6929 18.1043 23.6929 17.6161 24.181C17.128 24.6692 17.128 25.4606 17.6161 25.9488L21.4183 29.751C22.0373 30.37 23.0455 30.3547 23.6455 29.7173L31.4765 21.3967Z" fill="#1E4DD8"></path></svg>