<svg xmlns:xlink="http://www.w3.org/1999/xlink" xmlns="http://www.w3.org/2000/svg" data-name="Layer 1" width="80" height="80" viewBox="0 0 75 77.5"><defs><linearGradient id="firefoxa" x1="68.84" y1="69.05" x2="8.55" y2="10.88" gradientTransform="matrix(1 0 0 -1 0 82)" gradientUnits="userSpaceOnUse"><stop offset="0.05" stop-color="#fff44f"></stop><stop offset="0.37" stop-color="#ff980e"></stop><stop offset="0.53" stop-color="#ff3647"></stop><stop offset="0.7" stop-color="#e31587"></stop></linearGradient><radialGradient id="firefoxb" cx="-101.66" cy="317.94" r="1" gradientTransform="matrix(76.8 0 0 -78.09 7861.9 24837.68)" gradientUnits="userSpaceOnUse"><stop offset="0.13" stop-color="#ffbd4f"></stop><stop offset="0.28" stop-color="#ff980e"></stop><stop offset="0.47" stop-color="#ff3750"></stop><stop offset="0.78" stop-color="#eb0878"></stop><stop offset="0.86" stop-color="#e50080"></stop></radialGradient><radialGradient id="firefoxc" cx="-101.69" cy="317.94" r="1" gradientTransform="matrix(78.72 0 0 -78.09 8037.39 24869.94)" gradientUnits="userSpaceOnUse"><stop offset="0.3" stop-color="#960e18"></stop><stop offset="0.35" stop-color="#b11927" stop-opacity="0.74"></stop><stop offset="0.43" stop-color="#db293d" stop-opacity="0.34"></stop><stop offset="0.5" stop-color="#f5334b" stop-opacity="0.09"></stop><stop offset="0.53" stop-color="#ff3750" stop-opacity="0"></stop></radialGradient><radialGradient id="firefoxd" cx="-98.91" cy="315.42" r="1" gradientTransform="matrix(25.21 0 0 -42.8 2540.83 13495.08)" gradientUnits="userSpaceOnUse"><stop offset="0.13" stop-color="#fff44f"></stop><stop offset="0.53" stop-color="#ff980e"></stop></radialGradient><radialGradient id="firefoxe" cx="-99.91" cy="314.46" r="1" gradientTransform="matrix(33.36 0 0 -36.56 3363.53 11557.62)" gradientUnits="userSpaceOnUse"><stop offset="0.35" stop-color="#3a8ee6"></stop><stop offset="0.67" stop-color="#9059ff"></stop><stop offset="1" stop-color="#c139e6"></stop></radialGradient><radialGradient id="firefoxf" cx="-97.18" cy="309.92" r="1" gradientTransform="matrix(17.71 0 0 -21.57 1757.86 6717.83)" gradientUnits="userSpaceOnUse"><stop offset="0.21" stop-color="#9059ff" stop-opacity="0"></stop><stop offset="0.97" stop-color="#6e008b" stop-opacity="0.6"></stop></radialGradient><radialGradient id="firefoxg" cx="-99.12" cy="312.02" r="1" gradientTransform="matrix(26.52 0 0 -26.61 2665.96 8309.5)" gradientUnits="userSpaceOnUse"><stop offset="0.1" stop-color="#ffe226"></stop><stop offset="0.79" stop-color="#ff7139"></stop></radialGradient><radialGradient id="firefoxh" cx="-102.19" cy="318.75" r="1" gradientTransform="matrix(126.61 0 0 -106.28 12999.17 33864.86)" gradientUnits="userSpaceOnUse"><stop offset="0.11" stop-color="#fff44f"></stop><stop offset="0.46" stop-color="#ff980e"></stop><stop offset="0.72" stop-color="#ff3647"></stop><stop offset="0.9" stop-color="#e31587"></stop></radialGradient><radialGradient id="firefoxi" cx="-96.63" cy="321.28" r="1" gradientTransform="matrix(8.77 39.2 169.57 -37.92 -53617.58 15994.38)" gradientUnits="userSpaceOnUse"><stop offset="0" stop-color="#fff44f"></stop><stop offset="0.3" stop-color="#ff980e"></stop><stop offset="0.57" stop-color="#ff3647"></stop><stop offset="0.74" stop-color="#e31587"></stop></radialGradient><radialGradient id="firefoxj" cx="-101.58" cy="317.65" r="1" gradientTransform="matrix(72.69 0 0 -71.41 7421.9 22700.03)" gradientUnits="userSpaceOnUse"><stop offset="0.14" stop-color="#fff44f"></stop><stop offset="0.48" stop-color="#ff980e"></stop><stop offset="0.66" stop-color="#ff3647"></stop><stop offset="0.9" stop-color="#e31587"></stop></radialGradient><radialGradient id="firefoxk" cx="-101.82" cy="317.94" r="1" gradientTransform="matrix(87.37 0 0 -78.16 8952.91 24871.19)" gradientUnits="userSpaceOnUse"><stop offset="0.09" stop-color="#fff44f"></stop><stop offset="0.63" stop-color="#ff980e"></stop></radialGradient><linearGradient id="firefoxl" x1="65.13" y1="68.75" x2="16.91" y2="16.07" gradientTransform="matrix(1 0 0 -1 0 82)" gradientUnits="userSpaceOnUse"><stop offset="0.17" stop-color="#fff44f" stop-opacity="0.8"></stop><stop offset="0.6" stop-color="#fff44f" stop-opacity="0"></stop></linearGradient><linearGradient id="firefoxa" x1="68.84" y1="69.05" x2="8.55" y2="10.88" gradientTransform="matrix(1 0 0 -1 0 82)" gradientUnits="userSpaceOnUse"><stop offset="0.05" stop-color="#fff44f"></stop><stop offset="0.37" stop-color="#ff980e"></stop><stop offset="0.53" stop-color="#ff3647"></stop><stop offset="0.7" stop-color="#e31587"></stop></linearGradient><radialGradient id="firefoxb" cx="-101.66" cy="317.94" r="1" gradientTransform="matrix(76.8 0 0 -78.09 7861.9 24837.68)" gradientUnits="userSpaceOnUse"><stop offset="0.13" stop-color="#ffbd4f"></stop><stop offset="0.28" stop-color="#ff980e"></stop><stop offset="0.47" stop-color="#ff3750"></stop><stop offset="0.78" stop-color="#eb0878"></stop><stop offset="0.86" stop-color="#e50080"></stop></radialGradient><radialGradient id="firefoxc" cx="-101.69" cy="317.94" r="1" gradientTransform="matrix(78.72 0 0 -78.09 8037.39 24869.94)" gradientUnits="userSpaceOnUse"><stop offset="0.3" stop-color="#960e18"></stop><stop offset="0.35" stop-color="#b11927" stop-opacity="0.74"></stop><stop offset="0.43" stop-color="#db293d" stop-opacity="0.34"></stop><stop offset="0.5" stop-color="#f5334b" stop-opacity="0.09"></stop><stop offset="0.53" stop-color="#ff3750" stop-opacity="0"></stop></radialGradient><radialGradient id="firefoxd" cx="-98.91" cy="315.42" r="1" gradientTransform="matrix(25.21 0 0 -42.8 2540.83 13495.08)" gradientUnits="userSpaceOnUse"><stop offset="0.13" stop-color="#fff44f"></stop><stop offset="0.53" stop-color="#ff980e"></stop></radialGradient><radialGradient id="firefoxe" cx="-99.91" cy="314.46" r="1" gradientTransform="matrix(33.36 0 0 -36.56 3363.53 11557.62)" gradientUnits="userSpaceOnUse"><stop offset="0.35" stop-color="#3a8ee6"></stop><stop offset="0.67" stop-color="#9059ff"></stop><stop offset="1" stop-color="#c139e6"></stop></radialGradient><radialGradient id="firefoxf" cx="-97.18" cy="309.92" r="1" gradientTransform="matrix(17.71 0 0 -21.57 1757.86 6717.83)" gradientUnits="userSpaceOnUse"><stop offset="0.21" stop-color="#9059ff" stop-opacity="0"></stop><stop offset="0.97" stop-color="#6e008b" stop-opacity="0.6"></stop></radialGradient><radialGradient id="firefoxg" cx="-99.12" cy="312.02" r="1" gradientTransform="matrix(26.52 0 0 -26.61 2665.96 8309.5)" gradientUnits="userSpaceOnUse"><stop offset="0.1" stop-color="#ffe226"></stop><stop offset="0.79" stop-color="#ff7139"></stop></radialGradient><radialGradient id="firefoxh" cx="-102.19" cy="318.75" r="1" gradientTransform="matrix(126.61 0 0 -106.28 12999.17 33864.86)" gradientUnits="userSpaceOnUse"><stop offset="0.11" stop-color="#fff44f"></stop><stop offset="0.46" stop-color="#ff980e"></stop><stop offset="0.72" stop-color="#ff3647"></stop><stop offset="0.9" stop-color="#e31587"></stop></radialGradient><radialGradient id="firefoxi" cx="-96.63" cy="321.28" r="1" gradientTransform="matrix(8.77 39.2 169.57 -37.92 -53617.58 15994.38)" gradientUnits="userSpaceOnUse"><stop offset="0" stop-color="#fff44f"></stop><stop offset="0.3" stop-color="#ff980e"></stop><stop offset="0.57" stop-color="#ff3647"></stop><stop offset="0.74" stop-color="#e31587"></stop></radialGradient><radialGradient id="firefoxj" cx="-101.58" cy="317.65" r="1" gradientTransform="matrix(72.69 0 0 -71.41 7421.9 22700.03)" gradientUnits="userSpaceOnUse"><stop offset="0.14" stop-color="#fff44f"></stop><stop offset="0.48" stop-color="#ff980e"></stop><stop offset="0.66" stop-color="#ff3647"></stop><stop offset="0.9" stop-color="#e31587"></stop></radialGradient><radialGradient id="firefoxk" cx="-101.82" cy="317.94" r="1" gradientTransform="matrix(87.37 0 0 -78.16 8952.91 24871.19)" gradientUnits="userSpaceOnUse"><stop offset="0.09" stop-color="#fff44f"></stop><stop offset="0.63" stop-color="#ff980e"></stop></radialGradient><linearGradient id="firefoxl" x1="65.13" y1="68.75" x2="16.91" y2="16.07" gradientTransform="matrix(1 0 0 -1 0 82)" gradientUnits="userSpaceOnUse"><stop offset="0.17" stop-color="#fff44f" stop-opacity="0.8"></stop><stop offset="0.6" stop-color="#fff44f" stop-opacity="0"></stop></linearGradient></defs><path d="M74.8 26c-1.63-3.92-4.94-8.16-7.53-9.5a39.12 39.12 0 013.8 11.4.28.28 0 000 .06C66.83 17.36 59.63 13.1 53.75 3.81c-.3-.47-.59-1-.88-1.44-.15-.26-.29-.51-.42-.78a7.15 7.15 0 01-.56-1.48.14.14 0 000-.07.09.09 0 00-.06 0h-.12V0c-9.44 5.53-12.64 15.75-12.93 20.87a18.78 18.78 0 00-10.34 4 11.81 11.81 0 00-1-.74 17.4 17.4 0 01-.11-9.17 27.77 27.77 0 00-9 7c-1.49-1.88-1.39-8.1-1.3-9.4a7 7 0 00-1.25.66 26.29 26.29 0 00-3.67 3.15 32.69 32.69 0 00-3.51 4.2 31.74 31.74 0 00-5 11.38v.25c-.07.33-.32 2-.37 2.34a.22.22 0 010 .08 36.06 36.06 0 00-.61 5.18v.2a37.55 37.55 0 0074.56 6.36c.07-.48.12-1 .17-1.45A38.6 38.6 0 0074.8 26zM31.52 55.38l.52.26zM71.08 28z" transform="translate(-2.5)" fill="url(&quot;#firefoxa&quot;)"></path><path d="M74.8 26c-1.63-3.92-4.94-8.16-7.53-9.5a39 39 0 013.8 11.4v.1a34 34 0 01-1.16 25.3c-4.3 9.24-14.72 18.7-31 18.24C21.27 71 5.74 58 2.85 40.85c-.53-2.7 0-4.08.26-6.27a29 29 0 00-.61 5.18V40a37.55 37.55 0 0074.56 6.36c.07-.48.12-1 .17-1.45A38.6 38.6 0 0074.8 26z" transform="translate(-2.5)" fill="url(&quot;#firefoxb&quot;)"></path><path d="M74.8 26c-1.63-3.92-4.94-8.16-7.53-9.5a39 39 0 013.8 11.4v.1a34 34 0 01-1.16 25.3c-4.3 9.24-14.72 18.7-31 18.24C21.27 71 5.74 58 2.85 40.85c-.53-2.7 0-4.08.26-6.27a29 29 0 00-.61 5.18V40a37.55 37.55 0 0074.56 6.36c.07-.48.12-1 .17-1.45A38.6 38.6 0 0074.8 26z" transform="translate(-2.5)" fill="url(&quot;#firefoxc&quot;)"></path><path d="M56.55 30.41l.23.17A20.28 20.28 0 0053.3 26C41.62 14.36 50.24.72 51.69 0c-9.42 5.53-12.62 15.75-12.91 20.87.44 0 .87-.07 1.32-.07a18.94 18.94 0 0116.45 9.61z" transform="translate(-2.5)" fill="url(&quot;#firefoxd&quot;)"></path><path d="M40.12 32.74c-.06.93-3.36 4.15-4.52 4.15-10.67 0-12.41 6.46-12.41 6.46.48 5.44 4.26 9.92 8.85 12.29l.63.3c.37.16.73.31 1.11.45a16.24 16.24 0 004.88.94C57.38 58.21 61 35 47.5 28.21a13 13 0 019 2.2 18.94 18.94 0 00-16.4-9.61c-.45 0-.88 0-1.32.07a18.7 18.7 0 00-10.34 4c.56.46 1.22 1.13 2.56 2.45 2.57 2.51 9.11 5.11 9.12 5.42z" transform="translate(-2.5)" fill="url(&quot;#firefoxe&quot;)"></path><path d="M40.12 32.74c-.06.93-3.36 4.15-4.52 4.15-10.67 0-12.41 6.46-12.41 6.46.48 5.44 4.26 9.92 8.85 12.29l.63.3c.37.16.73.31 1.11.45a16.24 16.24 0 004.88.94C57.38 58.21 61 35 47.5 28.21a13 13 0 019 2.2 18.94 18.94 0 00-16.4-9.61c-.45 0-.88 0-1.32.07a18.7 18.7 0 00-10.34 4c.56.46 1.22 1.13 2.56 2.45 2.57 2.51 9.11 5.11 9.12 5.42z" transform="translate(-2.5)" fill="url(&quot;#firefoxf&quot;)"></path><path d="M26.69 23.6l.78.52a17.44 17.44 0 01-.11-9.18 27.77 27.77 0 00-9 7c.15-.02 5.64-.12 8.33 1.66z" transform="translate(-2.5)" fill="url(&quot;#firefoxg&quot;)"></path><path d="M2.85 40.85C5.74 58 21.27 71 38.88 71.54c16.31.46 26.73-9 31-18.24a34 34 0 001.2-25.3v-.07a.28.28 0 000 .06c1.33 8.7-3.1 17.12-10 22.82-13.48 11-26.37 6.62-29 4.83l-.54-.27c-7.86-3.75-11.1-10.91-10.41-17.05a9.64 9.64 0 01-8.89-5.59A14.15 14.15 0 0126 32.18a18.73 18.73 0 0014.1.56c0-.31-6.55-2.91-9.1-5.42-1.36-1.34-2-2-2.58-2.47a11.81 11.81 0 00-1-.74l-.78-.51c-2.74-1.78-8.18-1.68-8.36-1.68-1.49-1.88-1.39-8.1-1.3-9.4a6.41 6.41 0 00-1.25.66 26.29 26.29 0 00-3.67 3.15 32 32 0 00-3.51 4.2 31.74 31.74 0 00-5 11.38c-.03.09-1.36 5.91-.7 8.94z" transform="translate(-2.5)" fill="url(&quot;#firefoxh&quot;)"></path><path d="M53.3 26a20.28 20.28 0 013.48 4.55 7.12 7.12 0 01.57.46c8.51 7.84 4 18.94 3.72 19.73C68 45.07 72.41 36.65 71.08 28 66.83 17.36 59.63 13.1 53.75 3.81c-.3-.47-.59-1-.88-1.44-.15-.26-.29-.51-.42-.78a7.15 7.15 0 01-.56-1.48.14.14 0 000-.07.09.09 0 00-.06 0h-.12C50.24.72 41.62 14.36 53.3 26z" transform="translate(-2.5)" fill="url(&quot;#firefoxi&quot;)"></path><path d="M57.35 31a7.12 7.12 0 00-.57-.46l-.23-.17a13 13 0 00-9-2.2c13.5 6.75 9.88 30-8.84 29.12a16.37 16.37 0 01-4.89-.94c-.37-.14-.73-.29-1.1-.45l-.63-.3c2.62 1.79 15.51 6.14 29-4.83.31-.77 4.77-11.89-3.74-19.77z" transform="translate(-2.5)" fill="url(&quot;#firefoxj&quot;)"></path><path d="M23.19 43.35s1.74-6.46 12.41-6.46c1.16 0 4.46-3.22 4.52-4.15S33.29 35.6 26 32.18a14.15 14.15 0 00-13.8.56 9.64 9.64 0 008.89 5.59c-.69 6.14 2.55 13.3 10.41 17.05l.52.26c-4.57-2.37-8.35-6.85-8.83-12.29z" transform="translate(-2.5)" fill="url(&quot;#firefoxk&quot;)"></path><path d="M74.8 26c-1.63-3.92-4.94-8.16-7.53-9.5a39.12 39.12 0 013.8 11.4.28.28 0 000 .06C66.83 17.36 59.63 13.1 53.75 3.81c-.3-.47-.59-1-.88-1.44-.15-.26-.29-.51-.42-.78a7.15 7.15 0 01-.56-1.48.14.14 0 000-.07.09.09 0 00-.06 0h-.12V0c-9.44 5.53-12.64 15.75-12.93 20.87.43 0 .87-.07 1.32-.07a18.94 18.94 0 0116.45 9.61 13 13 0 00-9-2.2c13.5 6.75 9.88 30-8.84 29.12a16.37 16.37 0 01-4.89-.94c-.37-.14-.74-.29-1.1-.45l-.63-.3-.54-.27.52.26c-4.59-2.37-8.37-6.85-8.85-12.29 0 0 1.74-6.46 12.41-6.46 1.16 0 4.46-3.22 4.52-4.15 0-.31-6.55-2.91-9.1-5.42-1.36-1.34-2-2-2.58-2.47a11.81 11.81 0 00-1-.74 17.4 17.4 0 01-.11-9.17 27.92 27.92 0 00-9 7c-1.49-1.88-1.39-8.1-1.3-9.4a7.41 7.41 0 00-1.26.66 26.79 26.79 0 00-3.66 3.15 32.69 32.69 0 00-3.51 4.2 31.74 31.74 0 00-5 11.38v.25c-.07.33-.39 2-.43 2.36a44.15 44.15 0 00-.56 5.24V40a37.55 37.55 0 0074.56 6.36c.07-.48.12-1 .17-1.45A38.6 38.6 0 0074.8 26zm-3.73 1.93z" transform="translate(-2.5)" fill="url(&quot;#firefoxl&quot;)"></path></svg>